# xmcd CD database file
#
# Track frame offsets:
#	150
#	35128
#	72584
#	103182
#	140099
#	165027
#
# Disc length: 2614 seconds
#
# Revision: 1
# Processed by: cddbd v1.5.2PL0 Copyright (c) Steve Scherf et al.
# Submitted via: CDex 1.50
#
DISCID=540a3406
DTITLE=Charlier/Sourisse - Multiquarium Big Band_Sourisse, Charlier, Guillaume, Couderc, Egéa, Drevet, Leloup, Havet, Perchaud, Charbonnel
DYEAR=2016
DGENRE=Jazz
TTITLE0=L'afrobeat improbable
TTITLE1=Le langage des sages
TTITLE2=Le chat et la Souris (invité - Perico Sambeat)
TTITLE3=Gangsters  (invités - Jerry Bergonzi, Alex Sipiagin)
TTITLE4=Mingus Street Blues
TTITLE5=La femme du petit soldat unijambiste  (invités - Perico Sambeat, Nick Smart)
EXTD=YEAR: 2016
EXTT0=
EXTT1=
EXTT2=
EXTT3=
EXTT4=
EXTT5=
PLAYORDER=
